# xmcd
#
# Track frame offsets:
#	150
#	11582
#	25109
#	39414
#	50588
#	66869
#	85217
#	100742
#	116138
#
# Disc length: 1708 seconds
#
# Revision: 2
# Processed by: cddbd v1.5.2PL0 Copyright (c) Steve Scherf et al.
# Submitted via: audiograbber 1.83.01
#
DISCID=6d06aa09
DTITLE=Various Artist - CDX 025
DYEAR=1992
DGENRE=Country
TTITLE0=Collin Raye - Every Second
TTITLE1=Jim Lauderdale - I Wasn't Fooling Around
TTITLE2=Diamond Rio - Norma Jean Riley
TTITLE3=Mark Chesnutt - Old Flames Have New Names
TTITLE4=Ray Stevens - Power Tools
TTITLE5=Michelle Wright - Take It Like A Man
TTITLE6=Linda Davis - There's Something Bout Loving You
TTITLE7=Pirates Of The Mississippi - Til I'm Holding You Again
TTITLE8=The Forrester Sisters - What'll You Do About Me
EXTD=
EXTT0=
EXTT1=
EXTT2=
EXTT3=
EXTT4=
EXTT5=
EXTT6=
EXTT7=
EXTT8=
PLAYORDER=
